<?xml version="1.0" encoding="utf-8"?>
<!-- Generator: Adobe Illustrator 22.1.0, SVG Export Plug-In . SVG Version: 6.00 Build 0)  -->
<svg version="1.1" id="Layer_1" xmlns="http://www.w3.org/2000/svg" xmlns:xlink="http://www.w3.org/1999/xlink" x="0px" y="0px"
	 viewBox="0 0 71.1 86" style="enable-background:new 0 0 71.1 86;" xml:space="preserve">
<g>
	<path d="M23,40.9C23.1,40.9,23.1,40.9,23,40.9c3.4,1.6,6.5,3.2,9.4,4.6l-1.1,9.4H5.8c-0.3-0.2-1-0.9-1.5-2C4.1,52.2,4,51.7,4,51.6
		c1.3-1.2,15.6-8.2,16.3-8.5c0.9-0.4,1.3-1.5,0.8-2.4c-0.4-0.9-1.5-1.2-2.4-0.8c0,0-16.2,8-17.4,9.4c-1.1,1.2-1.2,3.1-0.2,5.2
		c0.9,2.1,2.7,4.2,4.6,4.2h25.2l-0.7,6.3c-0.1,0.5,0.1,1,0.4,1.4c0.3,0.4,0.8,0.6,1.3,0.6h36.9c0.5,0,1-0.2,1.3-0.6
		c0.3-0.4,0.5-0.9,0.5-1.4L67.4,32c-0.1-0.9-0.9-1.6-1.8-1.6h-6.2v-2.9c0-4.6-3.7-8.3-8.3-8.3h-1.3c-4.6,0-8.3,3.7-8.3,8.3l0,2.9
		h-5.6c-0.9,0-1.7,0.7-1.8,1.6l-1.2,9.7c-2.5-1.3-5-2.5-7.2-3.5V38c0.1-0.1,0.5-0.3,1.3-0.7c3-1.3,4.9-4.1,4.9-7.3c0-4.4-3.6-8-8-8
		c-4.4,0-8,3.6-8,8c0,1,0.8,1.8,1.8,1.8c1,0,1.8-0.8,1.8-1.8c0-2.4,2-4.4,4.4-4.4c2.4,0,4.4,2,4.4,4.4c0,1.8-1,3.3-2.7,4
		c-1,0.4-3.5,1.5-3.5,3.8C22.1,37.8,21.8,40,23,40.9z M56.5,38.8c0.3,0.2,0.7,0.4,1.1,0.4c0.4,0,0.8-0.1,1.1-0.4
		c0,0.1,0.1,0.2,0.1,0.3c0,0.6-0.5,1.1-1.1,1.1c-0.6,0-1.1-0.5-1.1-1.1C56.5,39,56.5,38.9,56.5,38.8z M42.1,38.8
		c0.3,0.2,0.7,0.4,1.1,0.4c0.4,0,0.8-0.1,1.1-0.4c0,0.1,0.1,0.2,0.1,0.3c0,0.6-0.5,1.1-1.1,1.1c-0.6,0-1.1-0.5-1.1-1.1
		C42.1,39,42.1,38.9,42.1,38.8z M35.8,47.2c4.1,2.1,7.1,3.7,7.7,4.2c0,0.3-0.1,1-0.6,2c-0.5,0.9-0.9,1.4-1.1,1.5h-6.9L35.8,47.2z
		 M33.9,63.2l0.6-4.7H42c2.1,0,3.6-2.5,4.1-3.5c0.6-1.1,1.7-3.8,0.4-5.7c-0.7-0.9-5.2-3.4-10.4-6c0.1-0.2,1.3-9.3,1.3-9.3h4l0,0.7
		c-1.7,0.7-2.9,2.4-2.9,4.3c0,2.6,2.1,4.7,4.7,4.7c2.6,0,4.7-2.1,4.7-4.7c0-2-1.2-3.6-2.9-4.3V34h6.6c1,0,1.8-0.8,1.8-1.8
		c0-1-0.8-1.8-1.8-1.8H45v-2.9c0-2.6,2.1-4.7,4.7-4.7H51c2.6,0,4.7,2.1,4.7,4.7v7.3c-1.7,0.7-2.9,2.4-2.9,4.3c0,2.6,2.1,4.7,4.7,4.7
		c2.6,0,4.7-2.1,4.7-4.7c0-2-1.2-3.6-2.9-4.3V34H64l2.9,29.2L33.9,63.2L33.9,63.2z"/>
</g>
</svg>
