<?xml version="1.0" encoding="utf-8"?>
<!-- Generator: Adobe Illustrator 22.1.0, SVG Export Plug-In . SVG Version: 6.00 Build 0)  -->
<svg version="1.1" id="Layer_1" xmlns="http://www.w3.org/2000/svg" xmlns:xlink="http://www.w3.org/1999/xlink" x="0px" y="0px"
	 viewBox="0 0 71.1 86" style="enable-background:new 0 0 71.1 86;" xml:space="preserve">
<g>
	<g>
		<path d="M66.4,19.5l-17.7,6.8c-0.4,0.1-0.7,0.2-1.1,0.2l-3-0.1c-0.2,0-0.4,0-0.6,0.1l-8.1,3.1c-0.2,0.1-0.4,0.1-0.6,0
			c-0.2-0.1-0.3-0.3-0.4-0.5l-1.3-5.6c-0.3-1.4,0.5-2.8,1.8-3.3l0.1,0c0.9-0.4,2-0.2,2.8,0.4c0.5,0.4,1,0.5,1.6,0.2
			c0.1,0,2.1-0.7,2.7-3.1c-2.4-2.1-1.7-5.3-0.9-6.8c0.2-0.3,0.5-0.4,0.8-0.3l13.8,4.1c0.5,0.2,1.1,0.2,1.6,0.2l4.1-0.2
			c1.2-0.1,2.3,0.3,3.2,1.2c0.9,0.8,1.4,2,1.4,3.2C66.8,19.2,66.6,19.4,66.4,19.5z M36.2,28l7.3-2.8c0.4-0.1,0.7-0.2,1.1-0.2
			c0,0,0,0,0,0l3,0.1c0.2,0,0.4,0,0.6-0.1l17.2-6.6c-0.1-0.6-0.4-1.2-0.9-1.7c-0.6-0.6-1.4-0.8-2.2-0.8l-4.1,0.2
			c-0.7,0-1.4,0-2.1-0.2L42.9,12c-0.4,1-0.9,3.3,1.1,4.7c0.2,0.2,0.3,0.4,0.3,0.7c-0.5,3.7-3.6,4.6-3.7,4.6c-1,0.4-2,0.2-2.9-0.5
			c-0.4-0.3-1-0.4-1.5-0.2l-0.1,0c-0.7,0.3-1.1,1-0.9,1.7L36.2,28z"/>
	</g>
	<g>
		<path d="M50.1,17.3c-0.2,0.1-0.4,0.1-0.6,0c-0.8-0.4-3.3-1.5-4.5-0.9c-0.2,0.1-0.6,0.4-0.7,1.1c-0.1,0.4-0.4,0.6-0.8,0.6
			c-0.4-0.1-0.6-0.4-0.6-0.8c0.2-1.2,1-1.8,1.5-2.1c2.1-1,5.4,0.7,5.8,0.9c0.3,0.2,0.5,0.6,0.3,1C50.4,17.2,50.2,17.3,50.1,17.3z"/>
	</g>
	<g>
		<path d="M55.6,19.2c-0.1,0-0.2,0.1-0.3,0c-0.4,0-0.7-0.4-0.6-0.8l0.3-3.4c0-0.4,0.4-0.7,0.8-0.6c0.4,0,0.7,0.4,0.6,0.8L56,18.6
			C56,18.9,55.8,19.1,55.6,19.2z"/>
	</g>
	<g>
		<path d="M52.8,19.4c-0.1,0-0.2,0.1-0.3,0c-0.4,0-0.7-0.4-0.7-0.7l0.3-4.4c0-0.4,0.4-0.7,0.7-0.7c0.4,0,0.7,0.4,0.7,0.7l-0.3,4.4
			C53.2,19.1,53.1,19.3,52.8,19.4z"/>
	</g>
	<g>
		<path d="M49.9,19.4c-0.1,0-0.2,0.1-0.3,0c-0.4,0-0.7-0.4-0.7-0.7l0.3-5.2c0-0.4,0.4-0.7,0.7-0.7c0.4,0,0.7,0.4,0.7,0.7l-0.3,5.2
			C50.4,19.1,50.2,19.3,49.9,19.4z"/>
	</g>
	<g>
		<path d="M64,23.6l-23.9,9.2c-1,0.4-2.1,0.3-3-0.2c-0.9-0.5-1.6-1.4-1.8-2.4L35,29.1c-0.1-0.3,0.1-0.7,0.4-0.8l8.1-3.1
			c0.4-0.1,0.7-0.2,1.1-0.2l3,0.1c0.2,0,0.4,0,0.6-0.1l17.7-6.8c0.2-0.1,0.5-0.1,0.7,0.1c0.2,0.1,0.3,0.4,0.3,0.6c0,0.1,0,0.1,0,0.2
			l0,0.6C66.7,21.4,65.6,22.9,64,23.6z M36.5,29.4l0.1,0.5c0.1,0.6,0.5,1.2,1.1,1.5c0.6,0.3,1.2,0.3,1.8,0.1l23.9-9.2
			c1-0.4,1.7-1.3,1.9-2.3l-16.6,6.4c-0.4,0.1-0.7,0.2-1.1,0.2l-3-0.1c-0.2,0-0.4,0-0.6,0.1L36.5,29.4z"/>
	</g>
</g>
<g transform="translate(0,-952.36218)">
	<path d="M39.1,993c-1.1,0.5-2.2,1.1-3,1.7c-2.2,2.6-6.1,6.3-7,8.8c-1.7,10.1,3.1,18.9,6.8,27.3c0.2,0.4,0.8,0.7,1.2,0.5l3.8-1.7
		c0.4-0.2,0.7-0.8,0.5-1.2c-1.4-3.2-2.1-5.3-2.7-7.4c0.6,1.5,1.3,3,2.2,5c0.7,1.2,1.9,1.5,3.1,1.2c2.2-0.6,4.5-1.3,6.7-1.9
		c1-0.5,1.6-1.6,1.4-2.6l1.1,2.6c0.2,0.5,0.8,0.7,1.2,0.5s0.7-0.8,0.5-1.2l-0.4-0.9c0.1,0,0.3-0.1,0.4-0.1c2-1.2,4-2.4,6-3.6
		c1.1-0.7,1.7-1.9,1.2-3.1c-0.8-1.9-1.4-3.2-2-4.7c1.1,1.7,2.1,3.7,3.4,6.7c0.2,0.4,0.8,0.7,1.2,0.5l3.8-1.7
		c0.4-0.2,0.7-0.8,0.5-1.2c-3.6-8.4-6.7-17.8-15.2-23.5c-3-0.9-7.9-0.8-11.3-1C41.2,992.2,40,992.6,39.1,993L39.1,993z M39.8,994.7
		c1-0.4,2-0.8,2.9-0.9c0.8,0,1.6,0.1,2.3,0.1l0.5,1.2c0.1,0.7-0.2,1.8-1,2.7c-0.7,0.9-1.5,1.5-2.5,2c-1,0.5-2.2,0.6-3.2,0.5
		c-1.2-0.1-2.2-0.5-2.6-1l-0.5-1.2c0.6-0.6,1.3-1.5,1.5-1.8C37.9,995.7,38.8,995.1,39.8,994.7z M38.5,996.3l0.7,1.7l3.4-1.5
		l-0.7-1.7L38.5,996.3z M34.3,999.5C34.3,999.5,34.3,999.5,34.3,999.5c0.1,0.2,0.2,0.5,0.3,0.7c0.9,1.3,2.5,1.8,4,1.9
		c0.8,0.1,1.6,0,2.3-0.1l9.3,21.3c-0.1,0.1-0.2,0.3-0.3,0.4l-6.5,1.8c-0.4,0.1-0.6,0-0.9-0.1c-2.2-5.1-4.5-10.3-6.5-14.9l-5-7.1
		C31.9,1002.3,33.1,1000.9,34.3,999.5L34.3,999.5z M47.1,994c1.9,0.1,3.7,0.2,5,0.3l1.8,8.5c2.1,5,4.4,10.1,6.5,14.9
		c0,0.4-0.3,0.5-0.5,0.7l-5.8,3.5c-0.2,0-0.3,0-0.5,0l-9.3-21.3c0.6-0.4,1.1-1,1.6-1.6c1-1.2,1.7-2.7,1.4-4.3
		C47.3,994.4,47.2,994.2,47.1,994L47.1,994z M30.6,1005.9c2.2,2.6,4.1,6,5.3,8.8c0,0,0,0.1,0,0.1c0.5,5.5,1.1,8.2,3.4,13.5l-2.1,0.9
		C33.8,1021.6,30,1014.2,30.6,1005.9L30.6,1005.9z M54.3,995.7c6.4,5.2,9.3,13,12.5,20.6l-2.1,0.9c-2.3-5.2-3.9-7.5-7.5-11.6
		C55.6,1002.5,55.1,999.4,54.3,995.7z"/>
</g>
<g transform="translate(0,-952.36218)">
	<path d="M9.6,955.4c-2.9,10.5-6.1,31.7-7.7,40.7c0,0.8,0.2,1.5,0.6,2c0.6,0.5,1.3,0.8,2.5,1l3.6,0.7c0.6,0.1,1.2,0.1,1.7-0.2
		c0.5-0.2,0.8-0.7,0.9-1.2l0,0l0-0.1l5.6-18.1l-0.9,19c0,0.7,0.4,1.1,0.8,1.5c0.4,0.3,0.8,0.6,1.3,0.7l3.6,0.6
		c0.7,0.1,1.4,0.1,2.1-0.1c0.8-0.2,1.7-0.8,1.8-1.6c1.6-9.1,5.8-30.1,6.7-40.9c0-0.5-0.4-1-0.8-1c-8.6-1.1-12.3-1.7-20.7-3.7
		C10.2,954.6,9.6,955,9.6,955.4L9.6,955.4z M11.2,956.8c7.3,1.7,11.6,2.4,19,3.4c0,0.5-0.1,1.1-0.2,1.6c-6.5-0.4-12.9-1.6-19.2-3.4
		C11,957.8,11.1,957.3,11.2,956.8L11.2,956.8z M10.4,960.3c0.7,0.2,1.4,0.4,2,0.6c-0.2,0.7-0.7,1.7-1.2,2.5
		c-0.5,0.7-1.1,1.3-1.8,1.6C9.7,963.3,10.1,961.7,10.4,960.3z M29.8,963.7c-0.2,1.5-0.4,3.1-0.6,4.7c-0.5-0.5-0.9-1.2-1.1-2.1
		c-0.3-1-0.3-2-0.3-2.8C28.5,963.6,29.2,963.7,29.8,963.7z M14.3,961.3c3.8,0.9,7.6,1.6,11.5,2c-0.1,1,0,2.3,0.4,3.5
		c0.4,1.4,1.2,2.8,2.7,3.6c-1.4,9.1-3.3,19.2-4.6,26.1l-6.2-1.1l1.1-22.8c0-0.5-0.3-0.9-0.8-1c-0.5-0.1-1,0.2-1.1,0.7l-6.8,21.8
		l-6.2-1.1c1.2-6.9,2.9-17.3,4.7-26.1c1.6-0.2,2.9-1.3,3.8-2.5C13.5,963.4,14,962.3,14.3,961.3L14.3,961.3z M4,995l5.9,1l-0.5,1.7
		c-0.2,0.1-0.4,0-0.5,0l-3.6-0.7c-0.7,0-1.3-0.4-1.5-0.7C3.8,996.1,3.9,995.5,4,995L4,995z M18,997.5l5.9,1.1
		c-0.1,0.4-0.2,1-0.2,1.3c-0.5,0.3-1.1,0.3-1.8,0.3l-3.6-0.6c-0.2-0.1-0.3-0.2-0.5-0.3L18,997.5z"/>
</g>
</svg>
