<svg enable-background="new 0 0 238.1 96.1" viewBox="0 0 238.1 96.1" xmlns="http://www.w3.org/2000/svg"><g fill="none" stroke="#fff" stroke-linecap="round" stroke-linejoin="round" stroke-width="3.5805"><path d="m88.3 28.4v-2.4l1.5 1.8"/><path d="m94.2 32.9 19.8 23c1.3 1.6 3.1 2.3 5 2.3s3.7-.8 5-2.3l22-25.5" stroke-dasharray="4.5059 6.7588"/><path d="m148.3 27.8 1.6-1.8v2.4"/><path d="m149.9 35.2v53.3" stroke-dasharray="4.5376 6.8064"/><path d="m149.9 91.9v2.4h2.3"/><path d="m160.6 94.3h2.4v-2.4"/><path d="m163 85.1v-53" stroke-dasharray="4.5161 6.7742"/><path d="m163 28.7v-2.4s.6.7 1.5 1.8"/><path d="m168.8 33.2c7.5 8.9 19.7 23.3 19.9 23.5 2.7 2.3 6.9 2 9.2-.8l22.1-25.6" stroke-dasharray="4.4654 6.6981"/><path d="m222.2 27.8 1.6-1.8v2.4"/><path d="m223.8 35.2v53.3" stroke-dasharray="4.5376 6.8064"/><path d="m223.8 91.9v2.4h2.3"/><path d="m234.5 94.3h2.4v-2.4"/><path d="m236.9 84.9v-76.6c0-1.9-.9-3.7-2.3-4.9-2.7-2.4-6.9-2.1-9.2.7l-28.5 33" stroke-dasharray="4.6509 6.9763"/><path d="m194.6 39.7-1.5 1.8-1.6-1.8"/><path d="m186.8 34.1-25.2-30c-1.1-1.3-2.6-2-4.3-2.2-2.2-.2-4.4.4-5.8 2.2l-28.4 32.8" stroke-dasharray="4.8832 7.3248"/><path d="m120.6 39.7-1.5 1.8-1.6-1.8"/><path d="m112.7 34.2-26-30.1c-1.4-1.8-3.6-2.4-5.8-2.2-1.7.2-3.2.9-4.3 2.2l-27.8 32.8" stroke-dasharray="4.8832 7.3248"/><path d="m46.6 39.7-1.5 1.8-1.6-1.8"/><path d="m38.9 34.4-26.1-30.3c-2.3-2.8-6.5-3.1-9.2-.7-1.4 1.2-2.3 3-2.3 4.9v80.1" stroke-dasharray="4.6509 6.9763"/><path d="m1.3 91.9v2.4h2.3"/><path d="m12 94.3h2.4v-2.4"/><path d="m14.4 85.1v-53.3" stroke-dasharray="4.5376 6.8064"/><path d="m14.4 28.4v-2.4l1.5 1.8"/><path d="m20.3 32.9 19.9 23c2.3 2.8 6.5 3.1 9.2.8.2-.2 15-17.6 22.1-26" stroke-dasharray="4.4654 6.6981"/><path d="m73.6 28.1c1-1.1 1.5-1.8 1.5-1.8v2.4"/><path d="m75.2 35.5v53" stroke-dasharray="4.5161 6.7742"/><path d="m75.2 91.9v2.4h2.3"/><path d="m85.9 94.3h2.4v-2.4"/><path d="m88.3 85.1v-53.3" stroke-dasharray="4.5376 6.8064"/></g></svg>