<?xml version="1.0" encoding="utf-8"?>
<!-- Generator: Adobe Illustrator 22.1.0, SVG Export Plug-In . SVG Version: 6.00 Build 0)  -->
<svg version="1.1" id="Layer_1" xmlns="http://www.w3.org/2000/svg" xmlns:xlink="http://www.w3.org/1999/xlink" x="0px" y="0px"
	 viewBox="0 0 238.1 96.1" style="enable-background:new 0 0 238.1 96.1;" xml:space="preserve">
<style type="text/css">
	.st0{fill:none;stroke:#FFFFFF;stroke-width:3.58;stroke-linecap:round;stroke-miterlimit:10;}
	.st1{fill:none;stroke:#FFFFFF;stroke-width:3.58;stroke-linecap:round;stroke-miterlimit:10;stroke-dasharray:4.54,6.81;}
	.st2{fill:none;stroke:#FFFFFF;stroke-width:3.58;stroke-linecap:round;stroke-miterlimit:10;stroke-dasharray:4.46,6.69;}
	.st3{fill:none;stroke:#FFFFFF;stroke-width:3.58;stroke-linecap:round;stroke-miterlimit:10;stroke-dasharray:4.52,6.78;}
	.st4{fill:none;stroke:#FFFFFF;stroke-width:3.58;stroke-linecap:round;stroke-miterlimit:10;stroke-dasharray:5.11,7.66;}
	.st5{fill:none;stroke:#FFFFFF;stroke-width:3.58;stroke-linecap:round;stroke-miterlimit:10;stroke-dasharray:4.49,6.74;}
	.st6{fill:none;stroke:#FFFFFF;stroke-width:3.58;stroke-linecap:round;stroke-miterlimit:10;stroke-dasharray:4.51,6.77;}
	.st7{fill:none;stroke:#FFFFFF;stroke-width:3.58;stroke-linecap:round;stroke-miterlimit:10;stroke-dasharray:4.64,6.96;}
	.st8{fill:none;stroke:#FFFFFF;stroke-width:3.58;stroke-linecap:round;stroke-miterlimit:10;stroke-dasharray:4.88,7.32;}
	.st9{fill:none;stroke:#FFFFFF;stroke-width:3.58;stroke-linecap:round;stroke-miterlimit:10;stroke-dasharray:4.89,7.33;}
	.st10{fill:none;stroke:#FFFFFF;stroke-width:3.58;stroke-linecap:round;stroke-miterlimit:10;stroke-dasharray:4.65,6.98;}
</style>
<title>logo</title>
<g>
	<polyline class="st0" points="12.5,94.3 14.9,94.3 14.9,92 	"/>
	<line class="st1" x1="14.9" y1="85.2" x2="14.9" y2="31.8"/>
	<polyline class="st0" points="14.9,28.4 14.9,26 16.5,27.8 	"/>
	<path class="st2" d="M20.8,32.9l19.9,23c2.3,2.8,6.5,3.1,9.2,0.8c0.3-0.2,0.5-0.5,0.8-0.8L72,30.7"/>
	<polyline class="st0" points="74.1,28.1 75.7,26.3 75.7,28.7 	"/>
	<line class="st3" x1="75.7" y1="35.5" x2="75.7" y2="88.6"/>
	<polyline class="st0" points="75.7,92 75.7,94.3 78.1,94.3 	"/>
	<polyline class="st0" points="86.5,94.3 88.8,94.3 88.8,92 	"/>
	<line class="st1" x1="88.8" y1="85.2" x2="88.8" y2="31.8"/>
	<polyline class="st0" points="88.8,28.4 88.8,26 90.4,27.8 	"/>
	<path class="st4" d="M95.4,33.6l19.2,22.3c2.3,2.8,6.5,3.1,9.2,0.8c0.3-0.2,0.5-0.5,0.8-0.8l20.6-24.4"/>
	<polyline class="st0" points="147.7,28.5 149.3,26.7 149.3,29.1 	"/>
	<line class="st5" x1="149.3" y1="35.8" x2="149.3" y2="88.6"/>
	<polyline class="st0" points="149.3,92 149.3,94.3 151.7,94.3 	"/>
	<polyline class="st0" points="160.4,94.3 162.7,94.3 162.7,92 	"/>
	<line class="st6" x1="162.7" y1="85.2" x2="162.7" y2="32.2"/>
	<polyline class="st0" points="162.7,28.8 162.7,26.4 164.3,28.2 	"/>
	<path class="st4" d="M169.3,34l18.9,21.9c1.2,1.5,3.1,2.3,5,2.3c1.9,0,3.8-0.9,5-2.3l21-24.8"/>
	<polyline class="st0" points="221.6,28.1 223.2,26.3 223.2,28.7 	"/>
	<line class="st3" x1="223.2" y1="35.5" x2="223.2" y2="88.6"/>
	<polyline class="st0" points="223.2,92 223.2,94.3 225.6,94.3 	"/>
	<polyline class="st0" points="233.9,94.3 236.3,94.3 236.3,92 	"/>
	<path class="st7" d="M236.3,85V8.3c0-3.6-2.9-6.6-6.6-6.6c-1.9,0-3.8,0.9-5,2.3l-27.8,33"/>
	<polyline class="st0" points="194.6,39.7 193.1,41.5 191.6,39.7 	"/>
	<path class="st8" d="M186.8,34.2L162.1,5.6c-0.7-1.6-2.1-2.8-3.7-3.4c-0.8-0.3-1.6-0.4-2.4-0.4c-0.8,0-1.7,0.1-2.4,0.4
		c-1.6,0.6-3,1.8-3.7,3.4l-26.5,31.3"/>
	<polyline class="st0" points="121.1,39.7 119.6,41.5 118,39.7 	"/>
	<path class="st9" d="M113.2,34.2l-26-30.1c-0.7-0.9-1.7-1.5-2.7-1.9h-0.1C84.1,2.1,83.9,2,83.6,2l-0.3,0c-0.2,0-0.4-0.1-0.6-0.1
		h-0.4h-0.5c-0.2,0-0.4,0-0.6,0.1l-0.3,0C80.6,2,80.3,2.1,80,2.2h-0.1c-1.1,0.4-2,1-2.8,1.9L49.5,36.9"/>
	<polyline class="st0" points="47.2,39.7 45.6,41.5 44.1,39.7 	"/>
	<path class="st10" d="M39.5,34.4L13.3,4.1C11,1.3,6.8,1,4.1,3.4c-1.4,1.2-2.3,3-2.3,4.9v80.1"/>
	<polyline class="st0" points="1.8,92 1.8,94.3 4.2,94.3 	"/>
</g>
</svg>
