<?xml version="1.0" encoding="utf-8"?>
<!-- Generator: Adobe Illustrator 22.1.0, SVG Export Plug-In . SVG Version: 6.00 Build 0)  -->
<svg version="1.1" id="Layer_1" xmlns="http://www.w3.org/2000/svg" xmlns:xlink="http://www.w3.org/1999/xlink" x="0px" y="0px"
	 viewBox="0 0 221.4 96.7" style="enable-background:new 0 0 221.4 96.7;" xml:space="preserve">
<style type="text/css">
	.st0{fill:#231F20;}
</style>
<g>
	<path class="st0" d="M233.4,1.2c0.2,0.1,0.4,0.2,0.5,0.3C233.7,1.4,233.6,1.3,233.4,1.2z"/>
	<path class="st0" d="M230.4,0.4c-0.2,0-0.5,0-0.7,0C229.9,0.3,230.1,0.3,230.4,0.4z"/>
	<path class="st0" d="M234.6,1.9c0.1,0.1,0.2,0.1,0.3,0.2C234.8,2.1,234.7,2,234.6,1.9z"/>
	<path class="st0" d="M232.8,0.9c-0.1,0-0.1-0.1-0.2-0.1l0,0c-0.1-0.1-0.3-0.1-0.5-0.1C232.4,0.8,232.6,0.8,232.8,0.9z"/>
	<path class="st0" d="M230.9,0.4c0.2,0,0.5,0.1,0.7,0.1C231.4,0.5,231.1,0.5,230.9,0.4z"/>
	<path class="st0" d="M235.8,3c-0.1-0.1-0.1-0.1-0.2-0.2C235.7,2.9,235.8,2.9,235.8,3z"/>
	<path class="st0" d="M229.1,0.4c-0.2,0-0.4,0-0.6,0.1C228.7,0.4,228.9,0.4,229.1,0.4z"/>
	<path class="st0" d="M228.1,96.5L228.1,96.5l-6.7,0V8.7c0-2.1,0.8-4.2,2.2-5.7c-0.1,0.1-0.2,0.2-0.3,0.3l-30.3,35.8L163.6,4.9
		c-1-1.9-2.6-3.3-4.6-4.1c-1-0.4-2-0.5-3-0.5c-1.1,0-2.1,0.1-3.1,0.5c-2,0.7-3.6,2.2-4.6,4.1l-28.8,34.1L88.6,3.2
		c-0.9-1-2.1-1.9-3.4-2.3L85,0.8c-0.3-0.1-0.7-0.2-1-0.3l-0.3-0.1c-0.3,0-0.5-0.1-0.8-0.1c-0.2,0-0.4,0-0.6,0c0,0,0,0,0,0
		c-0.2,0-0.4,0-0.6,0c-0.3,0-0.5,0.1-0.9,0.1c-0.1,0-0.2,0-0.3,0.1c-0.3,0.1-0.7,0.2-1,0.3l-0.3,0.1c-1.3,0.5-2.5,1.3-3.4,2.4
		L45.6,39.1L14.7,3.2c-2.3-2.6-6-3.6-9.2-2.4C2.2,2.1,0,5.2,0,8.7v87.8h6.7l0,0.2L228.1,96.5z"/>
	<path class="st0" d="M226,1.2c0.2-0.1,0.4-0.2,0.6-0.3C226.4,1,226.2,1.1,226,1.2z"/>
	<path class="st0" d="M224.8,2c0.2-0.2,0.5-0.3,0.7-0.5C225.3,1.6,225,1.8,224.8,2z"/>
	<path class="st0" d="M227.2,0.7c0.2-0.1,0.4-0.1,0.6-0.2C227.6,0.6,227.4,0.7,227.2,0.7z"/>
	<path class="st0" d="M224.5,2.2c-0.3,0.2-0.5,0.4-0.7,0.7C224,2.6,224.3,2.4,224.5,2.2z"/>
</g>
</svg>
