<?xml version="1.0" encoding="utf-8"?>
<!-- Generator: Adobe Illustrator 22.1.0, SVG Export Plug-In . SVG Version: 6.00 Build 0)  -->
<svg version="1.1" id="Layer_1" xmlns="http://www.w3.org/2000/svg" xmlns:xlink="http://www.w3.org/1999/xlink" x="0px" y="0px"
	 viewBox="0 0 71.1 86" style="enable-background:new 0 0 71.1 86;" xml:space="preserve">
<path d="M48.1,60c7.9-4.4,13.2-12.9,13.2-22.5c0-1.7-0.2-3.4-0.5-5c0-0.1,0-0.1,0-0.2c-1.5-7.4-6.3-13.8-12.8-17.4
	c-0.2-0.2-0.5-0.4-0.8-0.4l0,0c-1.8-0.9-3.8-1.7-5.8-2.1c1-1.3,1.6-2.9,1.6-4.7C43,3.4,39.5,0,35.3,0c-7.5,0-13.6,6.1-13.6,13.6
	c0,0.7,0.1,1.3,0.1,2c-6.1,3.8-10.2,9.9-11.6,16.8c0,0,0,0.1,0,0.2c-0.3,1.6-0.5,3.3-0.5,5c0,9.7,5.3,18.1,13.2,22.5
	C10.2,60.7,0,71.3,0,84.2c0,1,0.8,1.8,1.8,1.8h67.5c1,0,1.8-0.8,1.8-1.8C71,71.2,60.8,60.6,48.1,60z M67.3,82.3h-30v-3.7l11-2.5l0,0
	l0,0h0.1c0.1,0,0.1,0,0.2-0.1c0.1,0,0.1-0.1,0.1-0.1c0.1,0,0.1-0.1,0.2-0.1l0.1-0.1l0.1-0.1l0.1-0.1l0.1-0.1l0.1-0.1
	c0-0.1,0.1-0.1,0.1-0.2s0-0.1,0.1-0.2c0-0.1,0-0.1,0-0.2s0-0.1,0-0.2v-0.1v-2.3h2.3l0,0l0,0c1,0,1.8-0.8,1.8-1.8v-5.4
	C61.2,67.5,66.6,74.2,67.3,82.3z M24.8,70.2c0-1-0.8-1.8-1.8-1.8h-2.3v-4.6c0.8-0.1,1.6-0.2,2.5-0.3l8,10.7l-6.3-1.4L24.8,70.2
	L24.8,70.2z M50.2,63.9v4.6h-2.3c-1,0-1.8,0.8-1.8,1.8V73l-6.3,1.4l8-10.7C48.6,63.6,49.4,63.7,50.2,63.9z M35.4,74.1l-9.3-12.6
	c2.9,1.1,6,1.7,9.3,1.7s6.4-0.6,9.3-1.7L35.4,74.1z M20.1,39.1c-1.7-1-3-2.6-3.5-4.5h5.6L20.1,39.1z M26.2,34.5h4.4
	c-0.8,3.1-3.6,5.4-7,5.4L26.2,34.5z M43.5,39.1c-1.7-1-3-2.6-3.5-4.5h5.6L43.5,39.1z M49.7,34.5h4.4c-0.8,3.1-3.6,5.4-7,5.4
	L49.7,34.5z M35.2,3.5c2.3,0,4.1,1.8,4.1,4.1c0,2.3-1.8,4.1-4.1,4.1c-1,0-1.8,0.8-1.8,1.8s0.8,1.8,1.8,1.8c0.5,0,0.9,0,1.4-0.1
	c0.1,0,0.1,0,0.2,0h0.1c2.7,0.2,5.3,0.9,7.6,1.9c-1.5,3.8-5.1,6.4-9.3,6.4c-4.6,0-8.5-3.2-9.7-7.5c0-0.1,0-0.2-0.1-0.3
	c-0.2-0.7-0.3-1.5-0.3-2.3C25.2,8,29.7,3.5,35.2,3.5z M22.8,19.2c2.1,4.7,6.9,8,12.4,8c5.6,0,10.4-3.3,12.5-8.2
	c4.2,2.8,7.4,7,8.9,12H14.1C15.6,26.2,18.7,22,22.8,19.2z M13.2,37.4c0-0.5,0-0.9,0-1.4c1.4,4.4,5.5,7.6,10.4,7.6c2.7,0,5.1-1,7-2.6
	L29,44.4l0,0c0,0.1,0,0.1-0.1,0.2c0,0.1,0,0.1,0,0.2s0,0.1,0,0.2s0,0.1,0,0.2l0,0v0.1c0,0.1,0,0.1,0,0.2s0,0.1,0,0.2s0,0.1,0.1,0.2
	c0,0.1,0,0.1,0.1,0.2c0,0.1,0.1,0.1,0.1,0.2l0.1,0.1l0.1,0.1l0.1,0.1l0.1,0.1c0.1,0,0.1,0.1,0.2,0.1c0,0,0.1,0,0.1,0.1l0,0
	c0.1,0,0.2,0.1,0.3,0.1h0.1c0.1,0,0.2,0,0.3,0c0,0,0,0,0.1,0l0,0h4.6l-1.4,3c-0.4,0.9,0,2,0.9,2.4c0.3,0.1,0.5,0.2,0.8,0.2
	c0.7,0,1.3-0.4,1.6-1l2.6-5.6l0,0c0-0.1,0-0.1,0.1-0.2c0-0.1,0-0.1,0-0.2s0-0.1,0-0.2s0-0.1,0-0.2l0,0v-0.1c0-0.1,0-0.1,0-0.2
	s0-0.1,0-0.2s0-0.1-0.1-0.2c0-0.1,0-0.1-0.1-0.2c0-0.1-0.1-0.1-0.1-0.2L39.5,44l-0.1-0.1l-0.1-0.1l-0.1-0.1c-0.1,0-0.1-0.1-0.2-0.1
	c0,0-0.1,0-0.1-0.1l0,0c-0.1,0-0.1,0-0.2-0.1c-0.1,0-0.1,0-0.2,0h-0.1c-0.1,0-0.1,0-0.2,0l0,0h-4.6l3.4-7.1
	c1.5,4.2,5.5,7.2,10.2,7.2c5,0,9.3-3.5,10.5-8.1c0.1,0.6,0.1,1.3,0.1,2c0,12.3-10,22.2-22.2,22.2C23.2,59.7,13.2,49.7,13.2,37.4z
	 M17,64.8v5.4c0,1,0.8,1.8,1.8,1.8l0,0l0,0h2.3v2.3v0.1c0,0.1,0,0.1,0,0.2s0,0.1,0,0.2s0,0.1,0.1,0.2c0,0.1,0.1,0.1,0.1,0.2
	c0,0,0,0.1,0.1,0.1l0.1,0.1l0.1,0.1l0.1,0.1l0.1,0.1c0.1,0,0.1,0.1,0.2,0.1l0.1,0.1c0.1,0,0.1,0,0.2,0.1h0.1l0,0l0,0l11,2.5v3.7H3.6
	C4.3,74.2,9.7,67.5,17,64.8z"/>
<path d="M29.4,15.3c1,0,1.8-0.8,1.8-1.8c0-2.2,1.8-4,4-4c1,0,1.8-0.8,1.8-1.8s-0.8-1.8-1.8-1.8c-4.2,0-7.6,3.4-7.6,7.6
	C27.6,14.5,28.4,15.3,29.4,15.3z"/>
</svg>
